<?xml version="1.0" encoding="utf-8"?>
<!DOCTYPE svg PUBLIC "-//W3C//DTD SVG 1.1//EN" "http://www.w3.org/Graphics/SVG/1.1/DTD/svg11.dtd">
<svg version="1.1" xmlns="http://www.w3.org/2000/svg" xmlns:xlink="http://www.w3.org/1999/xlink" x="0px" y="0px" viewBox="0 0 1000 1000" enable-background="new 0 0 1000 1000" xml:space="preserve" fill="#408941">
<g><path d="M149.4,966.1l677.3-677.3v292.9c0,45.1,36.5,81.7,81.7,81.7c45.1,0,81.7-36.5,81.7-81.7v-490c0-33-19.9-62.8-50.4-75.5C929.4,12,918.8,10,908.3,10v0h-490c-45.1,0-81.7,36.5-81.7,81.7c0,45.1,36.5,81.7,81.7,81.7h292.9L33.9,850.6C18,866.5,10,887.4,10,908.3c0,20.9,8,41.8,23.9,57.7C65.8,998,117.5,998,149.4,966.1L149.4,966.1z"/></g>
</svg>
