<svg width="48" height="48" viewBox="0 0 48 48" fill="none" xmlns="http://www.w3.org/2000/svg">
<path d="M24 0C31.6 0 38 3.2 43.2 9.6C46.4 14 48 18.8 48 24V24.4C48 30.4 45.6 35.6 41.2 40.8C36 45.6 30.8 48 25.2 48H22.8C16.4 48 10.8 45.2 5.6 39.6C2 34.8 0 29.6 0 24.4V23.2C0 20.4 0.8 16.8 2.8 12.8C4 10.4 6 8 9.2 5.2C13.6 1.6 18.8 0 24 0ZM31.2 13.6L26 12.4C24.8 16.4 24 18.8 23.6 18.8C20.8 18.8 18 19.6 15.2 21.2C14.4 20.8 14 20.4 13.6 20.4H12.8C10.8 21.2 10 22 10 23.6V24C10 24.8 10.4 25.6 11.6 26.8V27.2C11.2 32 14.8 34.8 22 36C22.4 36 22.8 36 24 36C30 36 34.4 34 36.4 29.6C36.8 28 36.8 26.8 37.2 26.4C38 25.6 38.4 24.8 38.4 23.6C38.4 22 37.6 21.2 36 20.4H34.8C34.4 20.4 34 20.8 32.8 21.2C31.2 20 28.8 19.2 24.8 18.8C26 15.6 26.8 13.6 26.8 13.6C29.2 14.4 30.8 14.8 31.2 14.8C31.6 16.4 32.4 17.2 33.2 17.2H34C36 17.2 36.8 16 36.8 14.4C36.4 12.8 35.6 12 34.4 12H34C33.2 12 32.4 12.8 31.2 13.6ZM13.2 21.6C14 21.6 14.4 22 14.4 22C13.2 22.8 12.4 24 11.6 25.6L10.8 24.4V23.2C11.6 22 12 21.6 13.2 21.6ZM19.6 24H20.4C21.2 24 22 24.8 22.4 26C21.6 27.2 21.2 28 20.4 28H19.6C18.8 28 18.4 27.6 18 26.4V26C18 25.2 18.4 24.4 19.6 24ZM19.6 30.4C20.8 31.2 22 31.6 22.8 32H25.2C25.6 32 26.8 31.6 28.4 30.8C28.4 30.8 28.4 30.8 28.8 31.2V31.6C28.4 32 27.2 32.8 25.2 33.2H23.2C22 33.2 20.4 32.8 19.2 31.6V30.8C19.2 30.8 19.6 30.8 19.6 30.4ZM28.4 24H29.2C30.4 24.4 30.8 25.2 30.8 26C30.8 26.8 30.4 27.6 29.2 28H28C26.8 27.6 26.4 27.2 26.4 26.4V26C26.8 24.8 27.2 24 28.4 24ZM34.4 12.8C35.2 12.8 35.6 13.2 36 14.4V14.8C36 15.6 35.6 16 34.4 16.4C33.2 16.4 32.8 16 32.4 15.2V14.4C32.4 13.6 33.2 13.2 34.4 12.8ZM35.2 21.6C36.8 22 37.6 22.8 37.6 23.6V24.4C37.2 25.2 36.8 25.6 36.8 25.6C36 24.4 35.2 23.2 34 22C34 21.6 34.4 21.6 35.2 21.6Z" fill="black"/>
</svg>
